# xmcd
#
# Track frame offsets:
#	150
#	9478
#	18969
#	27398
#
# Disc length: 489 seconds
#
# Revision: 0
# Processed by: cddbd v1.5.2PL0 Copyright (c) Steve Scherf et al.
# Submitted via: EZCDAudioConverter 2.0.5.1
#
DISCID=2201e704
DTITLE=The Ventures - French Sixties EP Collection - CD 2 - Walk Don't Run
DYEAR=2005
DGENRE=Instrumental
TTITLE0=Walk Don't Run
TTITLE1=The McCoy
TTITLE2=Silver City
TTITLE3=Bluer Than Blue
EXTD=
EXTT0=
EXTT1=
EXTT2=
EXTT3=
PLAYORDER=
